<svg xmlns:svg="http://www.w3.org/2000/svg" xmlns="http://www.w3.org/2000/svg" width="92.400002" height="33.545399" version="1.1"><g transform="translate(-180.22516,-480.88946)"><g transform="matrix(0.04085453,0,0,0.04085453,174.29904,477.86112)" fill="#6a6a6a"><path d="m464.0625 74.125-294.53125 180.46875 228.90625 326.5625 186.71875-43.75-6.25 357.8125 265.625-593.75-215.625 43.71875c1.414 7.34715 2.1875 14.92771 2.1875 22.6875 0 65.92899-53.44601 119.375-119.375 119.375-65.92899 0-119.375-53.44601-119.375-119.375 0-58.61882 42.25898-107.3473 97.96875-117.4375L487.5 235.0625 464.0625 74.125zM-448.4375 425.95312 -448.4375 425.95312 -448.4375 425.95312 -448.4375 425.95312 -448.4375 425.95312" fill="#6a6a6a"/><path transform="matrix(1.8897257,0,0,2.4541893,1432.9603,-677.49462)" d="m-448.4375 425.95312c0 16.61169-17.48888 30.07813-39.0625 30.07813-21.57362 0-39.0625-13.46644-39.0625-30.07813 0-16.61168 17.48888-30.07812 39.0625-30.07812 21.57362 0 39.0625 13.46644 39.0625 30.07812z" fill="#6a6a6a"/><path d="m588.9217 166.72692c-31.86163 0-59.23965 19.16444-71.2626 46.58854 12.74588-8.47155 28.02667-13.41923 44.47825-13.41923 44.45247 0 80.48833 36.03585 80.48833 80.48832 0 8.1866-1.21816 16.09461-3.49008 23.53777 16.8651-14.26804 27.56894-35.59166 27.56894-59.41256 0-42.95828-34.82457-77.78284-77.78284-77.78284zM622.06395 76.796433 622.06395 76.796433 622.06395 76.796433 622.06395 76.796433" fill="#6a6a6a"/><path d="m622.06395 76.796433c-45.63907 0-85.86575 23.132838-109.62645 58.303307 22.8166-17.04392 51.11687-27.13606 81.78696-27.13606 75.56242 0 136.81663 61.2542 136.81663 136.81663 0 18.52968-3.68721 36.18044-10.36203 52.29712 20.89979-23.38376 33.60219-54.23326 33.60219-88.0637 0-73.02252-59.19478-132.217297-132.2173-132.217297z" fill="#6a6a6a"/></g><g transform="scale(0.93686538,1.0673892)" style="fill:#6a6a6a;font-family:Sans;font-size:37.47461319px;letter-spacing:0px;line-height:125%;word-spacing:0px"><path d="m230.92069 458.25006 4.22687 0 0 13.19662 7.42173 0 0 3.19486-11.6486 0 0-16.39148" style="-inkscape-font-specification:Sans Bold;fill:#6a6a6a;font-family:Sans;font-size:22.48476982px;font-weight:bold"/><path d="m257.31395 468.95447-0.13175 0.6258-9.20031 0c-0.00001 0.0439-0.004 0.1098-0.011 0.19762-0.007 0.0805-0.011 0.14273-0.011 0.18664 0 0.79781 0.23787 1.39433 0.71363 1.78956 0.48306 0.39524 1.20401 0.59286 2.16284 0.59286 0.82707 0 1.69806-0.12442 2.61298-0.37328 0.92221-0.24885 1.88835-0.61847 2.89842-1.10887l-0.60384 3.05213c-0.95883 0.35133-1.91399 0.61116-2.86549 0.7795-0.94419 0.17567-1.90667 0.2635-2.88744 0.2635-1.91766 0-3.3998-0.44282-4.44646-1.32845-1.03933-0.88563-1.559-2.13722-1.559-3.75478 0-0.93686 0.16468-1.84445 0.49405-2.72276 0.33669-0.88563 0.82342-1.6944 1.46019-2.42634 0.75388-0.8783 1.65415-1.54435 2.70081-1.99816 1.05397-0.45378 2.22139-0.68068 3.50227-0.68069 1.66146 0.00001 2.97893 0.44283 3.9524 1.32845 0.98077 0.88564 1.47116 2.07868 1.47117 3.57912-0.00001 0.29277-0.022 0.60384-0.0659 0.9332-0.0366 0.32206-0.0988 0.67704-0.18664 1.06495m-3.71087-1.80053c0.022-0.0951 0.0366-0.1903 0.0439-0.28545 0.0146-0.10247 0.0219-0.20128 0.022-0.29643-0.00001-0.58554-0.17567-1.05031-0.52698-1.39432-0.35134-0.344-0.82709-0.516-1.42726-0.51601-0.76853 0.00001-1.4236 0.21227-1.96522 0.63677-0.53431 0.41721-0.94419 1.03569-1.22964 1.85544l5.08323 0M272.55265 468.95447l-0.13175 0.6258-9.20031 0M272.55265 468.95447l-0.13175 0.6258-9.20031 0M272.55265 468.95447l-0.13175 0.6258-9.20031 0M272.55265 468.95447l-0.13175 0.6258-9.20031 0M272.55265 468.95447l-0.13175 0.6258-9.20031 0" style="-inkscape-font-specification:Sans Bold Italic;fill:#6a6a6a;font-style:italic"/><path d="m272.55265 468.95447-0.13175 0.6258-9.20031 0c-0.00001 0.0439-0.004 0.1098-0.011 0.19762-0.007 0.0805-0.011 0.14273-0.011 0.18664 0 0.79781 0.23787 1.39433 0.71363 1.78956 0.48306 0.39524 1.20401 0.59286 2.16284 0.59286 0.82707 0 1.69806-0.12442 2.61298-0.37328 0.92221-0.24885 1.88835-0.61847 2.89842-1.10887l-0.60383 3.05213c-0.95884 0.35133-1.914 0.61116-2.8655 0.7795-0.94419 0.17567-1.90667 0.2635-2.88744 0.2635-1.91765 0-3.3998-0.44282-4.44645-1.32845-1.03934-0.88563-1.55901-2.13722-1.55901-3.75478 0-0.93686 0.16469-1.84445 0.49405-2.72276 0.33669-0.88563 0.82342-1.6944 1.4602-2.42634 0.75388-0.8783 1.65414-1.54435 2.7008-1.99816 1.05397-0.45378 2.22139-0.68068 3.50227-0.68069 1.66146 0.00001 2.97893 0.44283 3.9524 1.32845 0.98077 0.88564 1.47116 2.07868 1.47117 3.57912-0.00001 0.29277-0.022 0.60384-0.0659 0.9332-0.0366 0.32206-0.0988 0.67704-0.18664 1.06495m-3.71087-1.80053c0.0219-0.0951 0.0366-0.1903 0.0439-0.28545 0.0146-0.10247 0.0219-0.20128 0.022-0.29643-0.00002-0.58554-0.17568-1.05031-0.52699-1.39432-0.35134-0.344-0.82709-0.516-1.42726-0.51601-0.76853 0.00001-1.4236 0.21227-1.96522 0.63677-0.53431 0.41721-0.94419 1.03569-1.22964 1.85544l5.08323 0" style="-inkscape-font-specification:Sans Bold Italic;fill:#6a6a6a;font-style:italic"/><path d="m280.55626 472.10542c1.01005 0 1.8298-0.46477 2.45927-1.39432 0.63677-0.92954 0.95515-2.14454 0.95516-3.64499-0.00001-0.68069-0.17933-1.21133-0.53796-1.59194-0.35134-0.3806-0.84539-0.5709-1.48215-0.57091-0.99543 0.00001-1.81519 0.46113-2.45927 1.38334-0.6441 0.91492-0.96615 2.08966-0.96615 3.52423 0 0.74657 0.172 1.31747 0.51601 1.71271 0.35132 0.38792 0.85635 0.58188 1.51509 0.58188m4.13904-7.9597 1.27355-6.58733 3.96338 0-3.3266 17.08315-3.96338 0 0.3623-1.77858c-0.60019 0.71729-1.22964 1.24793-1.88837 1.59194-0.65874 0.33669-1.37968 0.50503-2.16284 0.50503-1.38334 0-2.47757-0.43916-3.28269-1.31747-0.80512-0.87831-1.20768-2.07501-1.20768-3.5901 0-0.94418 0.13907-1.86274 0.4172-2.7557 0.28545-0.89294 0.69167-1.70538 1.21866-2.43731 0.66605-0.92222 1.41627-1.62121 2.25067-2.09697 0.84171-0.47574 1.74198-0.71362 2.70081-0.71363 0.84171 0.00001 1.55533 0.17202 2.14088 0.51601 0.59285 0.3367 1.09422 0.86368 1.50411 1.58096" style="-inkscape-font-specification:Sans Bold Italic;fill:#6a6a6a;font-style:italic"/></g></g></svg>