<?xml version="1.0" encoding="UTF-8" standalone="no"?>
<!-- Created with Inkscape (http://www.inkscape.org/) -->

<svg
   xmlns:dc="http://purl.org/dc/elements/1.1/"
   xmlns:cc="http://creativecommons.org/ns#"
   xmlns:rdf="http://www.w3.org/1999/02/22-rdf-syntax-ns#"
   xmlns:svg="http://www.w3.org/2000/svg"
   xmlns="http://www.w3.org/2000/svg"
   xmlns:sodipodi="http://sodipodi.sourceforge.net/DTD/sodipodi-0.dtd"
   xmlns:inkscape="http://www.inkscape.org/namespaces/inkscape"
   width="92.400002"
   height="33.545399"
   id="svg2"
   version="1.1"
   inkscape:version="0.48.4 r9939"
   sodipodi:docname="logo.svg">
  <defs
     id="defs4" />
  <sodipodi:namedview
     id="base"
     pagecolor="#ffffff"
     bordercolor="#666666"
     borderopacity="1.0"
     inkscape:pageopacity="0.0"
     inkscape:pageshadow="2"
     inkscape:zoom="7.9195959"
     inkscape:cx="45.885597"
     inkscape:cy="18.819847"
     inkscape:document-units="px"
     inkscape:current-layer="layer1"
     showgrid="false"
     fit-margin-top="0"
     fit-margin-left="0"
     fit-margin-right="0"
     fit-margin-bottom="0"
     inkscape:window-width="1365"
     inkscape:window-height="719"
     inkscape:window-x="0"
     inkscape:window-y="24"
     inkscape:window-maximized="1" />
  <metadata
     id="metadata7">
    <rdf:RDF>
      <cc:Work
         rdf:about="">
        <dc:format>image/svg+xml</dc:format>
        <dc:type
           rdf:resource="http://purl.org/dc/dcmitype/StillImage" />
        <dc:title />
      </cc:Work>
    </rdf:RDF>
  </metadata>
  <g
     inkscape:label="Calque 1"
     inkscape:groupmode="layer"
     id="layer1"
     transform="translate(-180.22516,-480.88946)">
    <g
       id="g3876"
       transform="matrix(0.04085453,0,0,0.04085453,174.29904,477.86112)"
       style="fill:#6a6a6a;fill-opacity:1;stroke:none">
      <path
         id="path2995"
         d="m 464.0625,74.125 -294.53125,180.46875 228.90625,326.5625 186.71875,-43.75 -6.25,357.8125 265.625,-593.75 -215.625,43.71875 c 1.414,7.34715 2.1875,14.92771 2.1875,22.6875 0,65.92899 -53.44601,119.375 -119.375,119.375 -65.92899,0 -119.375,-53.44601 -119.375,-119.375 0,-58.61882 42.25898,-107.3473 97.96875,-117.4375 L 487.5,235.0625 464.0625,74.125 z"
         style="fill:#6a6a6a;fill-opacity:1;stroke:none"
         inkscape:connector-curvature="0" />
      <path
         transform="matrix(1.8897257,0,0,2.4541893,1432.9603,-677.49462)"
         d="m -448.4375,425.95312 c 0,16.61169 -17.48888,30.07813 -39.0625,30.07813 -21.57362,0 -39.0625,-13.46644 -39.0625,-30.07813 0,-16.61168 17.48888,-30.07812 39.0625,-30.07812 21.57362,0 39.0625,13.46644 39.0625,30.07812 z"
         sodipodi:ry="30.078125"
         sodipodi:rx="39.0625"
         sodipodi:cy="425.95312"
         sodipodi:cx="-487.5"
         id="path2997-5"
         style="fill:#6a6a6a;fill-opacity:1;stroke:none"
         sodipodi:type="arc" />
      <path
         inkscape:connector-curvature="0"
         id="path3797-3"
         d="m 588.9217,166.72692 c -31.86163,0 -59.23965,19.16444 -71.2626,46.58854 12.74588,-8.47155 28.02667,-13.41923 44.47825,-13.41923 44.45247,0 80.48833,36.03585 80.48833,80.48832 0,8.1866 -1.21816,16.09461 -3.49008,23.53777 16.8651,-14.26804 27.56894,-35.59166 27.56894,-59.41256 0,-42.95828 -34.82457,-77.78284 -77.78284,-77.78284 z"
         style="color:#000000;fill:#6a6a6a;fill-opacity:1;fill-rule:nonzero;stroke:none;marker:none;visibility:visible;display:inline;overflow:visible;enable-background:accumulate" />
      <path
         inkscape:connector-curvature="0"
         id="path3797-3-6"
         d="m 622.06395,76.796433 c -45.63907,0 -85.86575,23.132838 -109.62645,58.303307 22.8166,-17.04392 51.11687,-27.13606 81.78696,-27.13606 75.56242,0 136.81663,61.2542 136.81663,136.81663 0,18.52968 -3.68721,36.18044 -10.36203,52.29712 20.89979,-23.38376 33.60219,-54.23326 33.60219,-88.0637 0,-73.02252 -59.19478,-132.217297 -132.2173,-132.217297 z"
         style="color:#000000;fill:#6a6a6a;fill-opacity:1;fill-rule:nonzero;stroke:none;marker:none;visibility:visible;display:inline;overflow:visible;enable-background:accumulate" />
    </g>
    <text
       xml:space="preserve"
       style="font-size:37.47461319px;font-style:normal;font-weight:normal;line-height:125%;letter-spacing:0px;word-spacing:0px;fill:#6a6a6a;fill-opacity:1;stroke:none;font-family:Sans"
       x="228.85666"
       y="474.64154"
       id="text3026"
       sodipodi:linespacing="125%"
       transform="scale(0.93686538,1.0673892)"><tspan
         sodipodi:role="line"
         id="tspan3028"
         x="228.85666"
         y="474.64154"
         style="font-size:22.48476982px;font-weight:bold;fill:#6a6a6a;stroke:none;font-family:Sans;-inkscape-font-specification:Sans Bold">L<tspan
   style="font-size:22.48476982px;font-style:italic;fill:#6a6a6a;stroke:none;-inkscape-font-specification:Sans Bold Italic"
   id="tspan3030">eed</tspan></tspan></text>
  </g>
</svg>
